<?xml version="1.0" standalone="no"?> 
<!DOCTYPE svg PUBLIC "-//W3C//DTD SVG 1.1//EN" 
"http://www.w3.org/Graphics/SVG/1.1/DTD/svg11.dtd"> 
<svg width="7cm" height="8cm" viewBox="0 0 700 800" xmlns="http://www.w3.org/2000/svg" xmlns:xlink="http://www.w3.org/1999/xlink" version="1.1"> 
<desc>Translated from HPL </desc> 
<!-- ECMAScript generated by translator -->
<g id="screen" x="0" y="0" width="100%" height="100%" transform="translate(50, 50) scale(600, 600)" >
<rect x="0" y="0" width="1.0" height="1.0" stroke="blue" stroke-width="0.01"/>
<g transform="matrix(1.0, 0.0, 0.0, 1.0, 0.0, 0.0)">
<g id="x">
<g transform="matrix(1.0, 0.0, 0.0, 1.0, 0.0, 0.0)">
<g>
<g transform="matrix(1.0, 0.0, 0.0, 1.0, 0.0, 0.0)">
<g>
<g transform="matrix(1.0, 0.0, 0.0, 1.0, 0.0, 0.0)">
<g>
<g transform="matrix(1.0, 0.0, 0.0, 1.0, 0.0, 0.0)">
<g>
<g transform="matrix(1.0, 0.0, 0.0, 1.0, 0.0, 0.0)">
<g id="spiral">
<g transform="matrix(1.0, 0.0, 0.0, 1.0, 0.0, 0.0)">
<g>
<g transform="matrix(1.0, 0.0, 0.0, 0.6, 0.0, 0.0)">
<g id="p1">
<g transform="matrix(1.0, 0.0, 0.0, 1.0, 0.0, 0.0)">
<g>
<g transform="matrix(1.0, 0.0, 0.0, 1.0, 0.0, 0.0)">
<g>
<g transform="matrix(1.0, 0.0, 0.0, 1.0, 0.0, 0.0)">
<g>
<g transform="matrix(1.0, 0.0, 0.0, 1.0, 0.0, 0.0)">
<g id="p">
<g transform="matrix(0.0, 1.0, -1.0, 0.0, 1.0, 0.0)">
<g id="p">
<g transform="matrix(0.0, 1.0, -1.0, 0.0, 1.0, 0.0)">
<g id="p">
<g transform="matrix(0.0, 1.0, -1.0, 0.0, 1.0, 0.0)">
<image id="p" x="0" y="0" width="600" height="600" transform="scale(0.00167, 0.00167)" xlink:href="images/uwicrest.jpg" preserveAspectRatio="none" />
</g>
</g>
</g>
</g>
</g>
</g>
</g>
</g>
</g>
</g>
</g>
</g>
</g>
</g>
</g>
<g transform="matrix(1.0, 0.0, 0.0, 0.4, 0.0, 0.6)">
<g id="p2">
<g transform="matrix(1.0, 0.0, 0.0, 1.0, 0.0, 0.0)">
<g>
<g transform="matrix(0.6666666666666667, 0.0, 0.0, 1.0, 0.0, 0.0)">
<g id="p1">
<g transform="matrix(1.0, 0.0, 0.0, 1.0, 0.0, 0.0)">
<g>
<g transform="matrix(1.0, 0.0, 0.0, 1.0, 0.0, 0.0)">
<g>
<g transform="matrix(1.0, 0.0, 0.0, 1.0, 0.0, 0.0)">
<g id="p">
<g transform="matrix(0.0, 1.0, -1.0, 0.0, 1.0, 0.0)">
<g id="p">
<g transform="matrix(0.0, 1.0, -1.0, 0.0, 1.0, 0.0)">
<image id="p" x="0" y="0" width="600" height="600" transform="scale(0.00167, 0.00167)" xlink:href="images/uwicrest.jpg" preserveAspectRatio="none" />
</g>
</g>
</g>
</g>
</g>
</g>
</g>
</g>
</g>
</g>
</g>
<g transform="matrix(0.33333333333333326, 0.0, 0.0, 1.0, 0.6666666666666667, 0.0)">
<g id="p2">
<g transform="matrix(1.0, 0.0, 0.0, 1.0, 0.0, 0.0)">
<g>
<g transform="matrix(1.0, 0.0, 0.0, 0.5, 0.0, 0.0)">
<image id="p1" x="0" y="0" width="600" height="600" transform="scale(0.00167, 0.00167)" xlink:href="images/uwicrest.jpg" preserveAspectRatio="none" />
</g>
<g transform="matrix(1.0, 0.0, 0.0, 0.5, 0.0, 0.5)">
<g id="p2">
<g transform="matrix(1.0, 0.0, 0.0, 1.0, 0.0, 0.0)">
<g>
<g transform="matrix(1.0, 0.0, 0.0, 1.0, 0.0, 0.0)">
<g id="p">
<g transform="matrix(0.0, 1.0, -1.0, 0.0, 1.0, 0.0)">
<image id="p" x="0" y="0" width="600" height="600" transform="scale(0.00167, 0.00167)" xlink:href="images/uwicrest.jpg" preserveAspectRatio="none" />
</g>
</g>
</g>
</g>
</g>
</g>
</g>
</g>
</g>
</g>
</g>
</g>
</g>
</g>
</g>
</g>
</g>
</g>
</g>
</g>
</g>
</g>
</g>
</g>
</g>
</g>
</g>
</g>
</g>
</g>

  <!-- Act on each click event -->
<text x="300" y="680" font-family="Verdana" font-size="30" text-anchor="middle" >
Click in the box if it is blank
</text> 
</svg>
